<?xml version="1.0" encoding="utf-8"?>
<!-- Generator: Adobe Illustrator 17.0.0, SVG Export Plug-In . SVG Version: 6.00 Build 0)  -->
<!DOCTYPE svg PUBLIC "-//W3C//DTD SVG 1.1//EN" "http://www.w3.org/Graphics/SVG/1.1/DTD/svg11.dtd">
<svg version="1.1" id="Layer_1" xmlns="http://www.w3.org/2000/svg" xmlns:xlink="http://www.w3.org/1999/xlink" x="0px" y="0px"
	 width="2000px" height="2000px" viewBox="0 0 2000 2000" enable-background="new 0 0 2000 2000" xml:space="preserve">
<g>
	<path fill="#54545E" d="M1876.229,770.221l-44.439,79.875l-60.177,108.182l-34.484-57.578l-635.543,362.399L513.783,912.525
		l-400.394,233.978c77.027,419.688,444.659,737.731,886.612,737.731c497.881,0,901.493-403.612,901.493-901.493
		C1901.493,909.527,1892.702,838.375,1876.229,770.221z M483.928,1211.381h-58.793v-58.793h58.793V1211.381z M483.928,1119.925
		h-58.793V1054.6h58.793V1119.925z M575.384,1211.381h-65.326v-58.793h65.326V1211.381z M575.384,1119.925h-65.326V1054.6h65.326
		V1119.925z"/>
	<path fill="#3FA9F5" d="M1102.865,1135.561l577.849-329.35l-36.231-60.58l123.742-1.858l100.783-1.497
		C1763.774,361.148,1414.598,81.248,1000,81.248c-497.881,0-901.493,403.612-901.493,901.493c0,14.713,0.38,29.336,1.077,43.876
		l414.834-242.345L1102.865,1135.561z M1097.988,950.079h-58.793v-65.326h58.793V950.079z M1097.988,852.09h-58.793v-58.793h58.793
		V852.09z M1176.379,950.079h-52.26v-65.326h52.26V950.079z M1176.379,852.09h-52.26v-58.793h52.26V852.09z M1120.983,516.154
		l478.593,285.709l-109.666,62.505l-369.563-220.619L738.264,866.714l-107.77-64.336L1120.983,516.154z"/>
</g>
</svg>
