<?xml version="1.0" encoding="utf-8"?>
<!-- Generator: Adobe Illustrator 17.0.0, SVG Export Plug-In . SVG Version: 6.00 Build 0)  -->
<!DOCTYPE svg PUBLIC "-//W3C//DTD SVG 1.1//EN" "http://www.w3.org/Graphics/SVG/1.1/DTD/svg11.dtd">
<svg version="1.1" id="Layer_1" xmlns="http://www.w3.org/2000/svg" xmlns:xlink="http://www.w3.org/1999/xlink" x="0px" y="0px"
	 width="2000px" height="1300px" viewBox="0 0 2000 1300" enable-background="new 0 0 2000 1300" xml:space="preserve">
<g>
	<g>
		<g>
			<g>
				<path fill="#54545E" d="M174.905,885.934c7.181-11.133,10.822-24.498,10.822-39.722c0-24.727-8.81-44.382-26.188-55.509
					C142.714,779.933,121.482,773,96.429,773H41v225h43v-83h3.813c1.894,0,3.863,2.068,5.904,2.09
					c4.692,0.05,9.935,0.463,14.264,0.351L150.42,998h50.422l-52.111-89.443C159.88,902.781,168.668,895.608,174.905,885.934z
					 M143.546,846.7c0,9.783-2.892,19.025-9.101,26.255C128.823,879.5,117.608,884,100.163,884H84v-69h15.014
					C138.484,815,143.546,832.18,143.546,846.7z"/>
			</g>
			<g>
				<polygon fill="#54545E" points="340.768,773 293.15,851.021 245.531,773 193.363,773 270,896.425 270,998 315,998 315,896.975 
					392.547,773 				"/>
			</g>
			<g>
				<path fill="#54545E" d="M446.056,773L339.501,998h48.777l18.093-39h89.181l18.094,39h49.947l-107.16-225H446.056z M477.901,915
					h-53.568l19.383-42.645l7.595-17.052l7.486,17.222L477.901,915z"/>
			</g>
			<g>
				<polygon fill="#54545E" points="700,773 700,896.184 700.492,902.602 586.062,773 576,773 576,998 621,998 621,879.355 
					618.784,872.077 731.027,996.744 731.731,998 747,998 747,773 				"/>
			</g>
		</g>
		<g>
			<g>
				<path fill="#3FA9F5" d="M983.942,878.846c5.016-4.096,9.006-9.118,11.922-15.02c4.585-9.28,6.912-19.267,6.912-29.676
					c0-16.001-5.575-31.274-16.574-42.494C975.006,780.254,953.34,773,921.805,773H864v225h64.409
					c23.405,0,41.864-2.718,54.862-9.322c13.225-6.713,22.152-15.126,26.531-25.634c4.104-9.853,6.185-21.27,6.185-34.241
					c0-12.895-3.618-24.215-10.756-33.805C1000.105,888.117,992.97,882.764,983.942,878.846z M951.657,857.295
					c-4.183,4.812-12.025,6.705-24.683,6.705H910v-49h15.537c29.545,0,33.333,11.634,33.333,21.473
					C958.87,844.903,956.645,851.561,951.657,857.295z M932.717,959H910v-59h25.303c11.927,0,21.512,3.599,27.711,8.587
					c5.519,4.451,8.203,11.157,8.203,19.52c0,9.358-2.502,16.956-7.655,22.923C959.024,956.292,948.934,959,932.717,959z"/>
			</g>
			<g>
				<path fill="#3FA9F5" d="M1207.852,786.905c-16.96-9.227-35.707-13.907-55.723-13.907c-20.019,0-38.766,4.68-55.723,13.907
					c-17.033,9.269-30.769,22.695-40.835,39.904c-10.046,17.178-15.14,37.524-15.14,60.473c0,22.751,5.091,43.044,15.132,60.314
					c10.06,17.304,23.794,30.825,40.821,40.192c16.957,9.333,35.713,14.064,55.745,14.064c20.03,0,38.785-4.731,55.746-14.064
					c17.027-9.369,30.758-22.89,40.821-40.192c10.04-17.276,15.132-37.566,15.132-60.314c0-22.943-5.094-43.29-15.14-60.473
					C1238.621,809.602,1224.882,796.176,1207.852,786.905z M1152.129,961.394c-11.771,0-22.854-2.891-32.939-8.592
					c-10.012-5.656-18.109-14.08-24.065-25.038c-6.017-11.055-9.067-24.579-9.067-40.197c0-15.825,2.966-29.469,8.816-40.547
					c5.765-10.918,13.7-19.267,23.587-24.82c9.995-5.611,21.325-8.458,33.669-8.458c12.336,0,23.609,2.841,33.507,8.447
					c9.808,5.556,17.754,13.921,23.623,24.862c5.933,11.072,8.942,24.702,8.942,40.516c0,15.629-3.009,29.164-8.942,40.228
					c-5.871,10.954-13.873,19.37-23.782,25.018C1175.495,958.506,1164.275,961.394,1152.129,961.394z"/>
			</g>
			<g>
				<polygon fill="#3FA9F5" points="1337,773 1292,773 1292,998 1394,998 1394,959 1337,959 				"/>
			</g>
			<g>
				<polygon fill="#3FA9F5" points="1394,815 1444,815 1444,998 1491,998 1491,815 1542,815 1542,773 1394,773 				"/>
			</g>
			<g>
				<path fill="#3FA9F5" d="M1718.47,786.905c-16.96-9.227-35.707-13.907-55.723-13.907c-20.019,0-38.766,4.68-55.723,13.907
					c-17.033,9.269-30.769,22.695-40.835,39.904c-10.046,17.178-15.14,37.524-15.14,60.473c0,22.751,5.091,43.044,15.132,60.314
					c10.06,17.304,23.794,30.825,40.821,40.192c16.957,9.333,35.713,14.064,55.746,14.064c20.03,0,38.785-4.731,55.746-14.064
					c17.027-9.369,30.758-22.89,40.821-40.192c10.04-17.276,15.132-37.566,15.132-60.314c0-22.943-5.094-43.29-15.14-60.473
					C1749.239,809.602,1735.5,796.176,1718.47,786.905z M1662.747,961.394c-11.771,0-22.854-2.891-32.939-8.592
					c-10.012-5.656-18.109-14.08-24.065-25.038c-6.017-11.055-9.067-24.579-9.067-40.197c0-15.825,2.967-29.469,8.816-40.547
					c5.765-10.918,13.7-19.267,23.587-24.82c9.996-5.611,21.325-8.458,33.669-8.458c12.336,0,23.609,2.841,33.507,8.447
					c9.808,5.556,17.754,13.921,23.623,24.862c5.933,11.072,8.941,24.702,8.941,40.516c0,15.629-3.008,29.164-8.941,40.228
					c-5.871,10.954-13.873,19.37-23.782,25.018C1686.113,958.506,1674.892,961.394,1662.747,961.394z"/>
			</g>
			<g>
				<polygon fill="#3FA9F5" points="1933,773 1933,896.338 1933.734,903.332 1818.369,773 1803,773 1803,998 1848,998 1848,879.526 
					1849.061,872.212 1964.035,998 1977,998 1977,773 				"/>
			</g>
		</g>
	</g>
	<g>
		<path fill="#54545E" d="M171.075,1053.158h11.222v63.061h20.955v9.931h-32.177V1053.158z"/>
		<path fill="#54545E" d="M249.082,1122.525c-5.595-3.078-10.047-7.464-13.357-13.159c-3.311-5.693-4.965-12.313-4.965-19.862
			c0-7.612,1.654-14.25,4.965-19.911c3.31-5.661,7.762-10.014,13.357-13.059c5.594-3.045,11.701-4.569,18.322-4.569
			c6.62,0,12.727,1.524,18.324,4.569c5.594,3.045,10.046,7.398,13.357,13.059c3.31,5.661,4.965,12.299,4.965,19.911
			c0,7.548-1.656,14.169-4.965,19.862c-3.311,5.695-7.763,10.081-13.357,13.159c-5.596,3.078-11.704,4.618-18.324,4.618
			C260.783,1127.143,254.676,1125.603,249.082,1122.525z M279.918,1113.885c3.773-2.151,6.769-5.296,8.987-9.434
			c2.218-4.137,3.327-9.087,3.327-14.846c0-5.826-1.109-10.808-3.327-14.946c-2.218-4.137-5.197-7.265-8.938-9.384
			c-3.741-2.118-7.929-3.178-12.563-3.178c-4.635,0-8.838,1.06-12.611,3.178c-3.775,2.119-6.754,5.247-8.938,9.384
			c-2.185,4.138-3.278,9.121-3.278,14.946c0,5.76,1.125,10.709,3.377,14.846c2.25,4.138,5.279,7.284,9.087,9.434
			c3.806,2.152,7.928,3.228,12.364,3.228C271.973,1117.113,276.143,1116.037,279.918,1113.885z"/>
		<path fill="#54545E" d="M349.878,1121.78c-5.528-3.376-9.749-7.895-12.661-13.556c-2.915-5.66-4.37-11.9-4.37-18.72
			c0-7.215,1.573-13.67,4.718-19.364c3.144-5.694,7.563-10.146,13.258-13.358c5.693-3.21,12.148-4.817,19.365-4.817
			c3.243,0,6.271,0.348,9.087,1.043c2.813,0.695,5.146,1.49,7,2.384c1.853,0.893,3.079,1.638,3.675,2.234l-4.867,9.931
			c-4.038-3.575-9.301-5.362-15.789-5.362c-4.568,0-8.707,1.126-12.414,3.376c-3.709,2.252-6.621,5.462-8.739,9.633
			c-2.121,4.171-3.178,9.005-3.178,14.499c0,5.033,0.943,9.6,2.83,13.704c1.886,4.107,4.651,7.349,8.292,9.733
			c3.64,2.383,7.976,3.575,13.009,3.575c5.826,0,11.453-1.654,16.883-4.965l3.277,9.434c-1.457,1.325-4.121,2.599-7.993,3.824
			c-3.874,1.224-7.796,1.837-11.768,1.837C361.944,1126.845,355.406,1125.157,349.878,1121.78z"/>
		<path fill="#54545E" d="M447.35,1053.059l35.155,73.091h-12.81l-6.258-14.301h-33.466l-6.256,14.301h-12.414l34.956-73.091H447.35
			z M442.385,1084.142l-7.945,17.677h24.628l-7.846-17.578l-4.27-10.03h-0.199L442.385,1084.142z"/>
		<path fill="#54545E" d="M508.523,1053.158h11.222v63.061H540.7v9.931h-32.177V1053.158z"/>
		<path fill="#54545E" d="M634.248,1092.087l-4.569-10.329l-2.085,10.329l-6.753,34.063h-11.024l15.095-72.992h1.192l20.061,39.426
			l5.959,13.208l5.959-13.208l19.663-39.426h1.092l15.691,72.992h-10.924l-7.348-34.063l-2.185-10.329l-3.972,10.329l-17.677,34.063
			h-0.595L634.248,1092.087z"/>
		<path fill="#54545E" d="M739.465,1122.525c-5.595-3.078-10.047-7.464-13.357-13.159c-3.311-5.693-4.965-12.313-4.965-19.862
			c0-7.612,1.654-14.25,4.965-19.911c3.31-5.661,7.762-10.014,13.357-13.059c5.594-3.045,11.701-4.569,18.322-4.569
			c6.62,0,12.727,1.524,18.323,4.569c5.594,3.045,10.046,7.398,13.357,13.059c3.31,5.661,4.965,12.299,4.965,19.911
			c0,7.548-1.656,14.169-4.965,19.862c-3.311,5.695-7.763,10.081-13.357,13.159c-5.596,3.078-11.704,4.618-18.323,4.618
			C751.166,1127.143,745.058,1125.603,739.465,1122.525z M770.3,1113.885c3.773-2.151,6.769-5.296,8.987-9.434
			c2.218-4.137,3.327-9.087,3.327-14.846c0-5.826-1.109-10.808-3.327-14.946c-2.218-4.137-5.197-7.265-8.938-9.384
			c-3.741-2.118-7.929-3.178-12.563-3.178c-4.635,0-8.838,1.06-12.611,3.178c-3.775,2.119-6.754,5.247-8.938,9.384
			c-2.185,4.138-3.278,9.121-3.278,14.946c0,5.76,1.125,10.709,3.377,14.846c2.25,4.138,5.279,7.284,9.087,9.434
			c3.806,2.152,7.928,3.228,12.364,3.228C762.356,1117.113,766.526,1116.037,770.3,1113.885z"/>
		<path fill="#54545E" d="M863.152,1126.15l-14.698-27.608c-3.046,0.133-5.76,0.199-8.144,0.199h-2.78v27.409h-10.825v-72.992
			h16.585c8.407,0,15.326,1.739,20.755,5.214s8.144,9.121,8.144,16.931c0,4.901-1.142,9.121-3.426,12.663
			c-2.284,3.542-5.678,6.273-10.179,8.192l17.378,29.992H863.152z M844.581,1089.703c6.488,0,10.94-1.405,13.357-4.22
			c2.417-2.813,3.626-6.173,3.626-10.08c0-8.673-5.795-13.01-17.379-13.01h-6.654v27.31H844.581z"/>
		<path fill="#54545E" d="M917.077,1062.89h-18.67v-9.732h48.561v9.732h-18.867v63.26h-11.024V1062.89z"/>
		<path fill="#54545E" d="M988.281,1122.178c-5.694-3.31-10.146-7.86-13.357-13.654c-3.212-5.793-4.817-12.298-4.817-19.516
			c0-7.016,1.621-13.34,4.867-18.968c3.243-5.627,7.746-10.03,13.506-13.208c5.76-3.178,12.248-4.767,19.465-4.767
			c3.905,0,7.431,0.348,10.576,1.042c3.143,0.695,5.71,1.49,7.696,2.384s3.343,1.673,4.071,2.334l-4.369,9.336
			c-4.105-3.31-10.164-4.965-18.173-4.965c-5.297,0-9.899,1.159-13.805,3.476c-3.907,2.318-6.886,5.462-8.938,9.434
			s-3.078,8.408-3.078,13.307c0,5.561,1.108,10.526,3.327,14.896c2.217,4.37,5.296,7.763,9.235,10.18
			c3.938,2.417,8.391,3.625,13.357,3.625c3.111,0,6.09-0.381,8.938-1.142c2.846-0.761,5.263-1.97,7.249-3.626v-14.101h-14.995
			v-10.23h26.019v28.602c-2.384,2.979-5.976,5.479-10.775,7.497c-4.801,2.021-10.346,3.029-16.635,3.029
			C1000.429,1127.143,993.974,1125.489,988.281,1122.178z"/>
		<path fill="#54545E" d="M1094.045,1053.059l35.156,73.091h-12.813l-6.256-14.301h-33.468l-6.256,14.301h-12.412l34.956-73.091
			H1094.045z M1089.079,1084.142l-7.945,17.677h24.627l-7.845-17.578l-4.27-10.03h-0.198L1089.079,1084.142z"/>
		<path fill="#54545E" d="M1166.936,1122.178c-5.695-3.31-10.147-7.86-13.355-13.654c-3.214-5.793-4.818-12.298-4.818-19.516
			c0-7.016,1.623-13.34,4.865-18.968c3.245-5.627,7.747-10.03,13.508-13.208c5.758-3.178,12.246-4.767,19.464-4.767
			c3.904,0,7.431,0.348,10.576,1.042c3.143,0.695,5.711,1.49,7.697,2.384c1.986,0.894,3.34,1.673,4.07,2.334l-4.37,9.336
			c-4.104-3.31-10.163-4.965-18.173-4.965c-5.297,0-9.897,1.159-13.803,3.476c-3.907,2.318-6.886,5.462-8.938,9.434
			c-2.052,3.972-3.079,8.408-3.079,13.307c0,5.561,1.109,10.526,3.327,14.896c2.218,4.37,5.297,7.763,9.235,10.18
			c3.938,2.417,8.393,3.625,13.358,3.625c3.111,0,6.09-0.381,8.938-1.142c2.845-0.761,5.263-1.97,7.249-3.626v-14.101h-14.997
			v-10.23h26.021v28.602c-2.384,2.979-5.977,5.479-10.776,7.497c-4.8,2.021-10.344,3.029-16.632,3.029
			C1179.085,1127.143,1172.628,1125.489,1166.936,1122.178z"/>
		<path fill="#54545E" d="M1245.885,1053.158h31.976v9.732h-20.952v20.16h16.883v9.931h-16.883v23.338h24.229v9.832h-35.253
			V1053.158z"/>
		<path fill="#54545E" d="M1356.316,1053.158h31.976v9.732h-20.952v20.16h16.883v9.931h-16.883v23.338h24.229v9.832h-35.253
			V1053.158z"/>
		<path fill="#54545E" d="M1438.245,1088.115l-21.052-34.957h13.408l13.803,25.523l14.201-25.523h13.108l-21.153,34.758
			l23.239,38.234h-13.208l-16.087-28.898l-15.792,28.898h-12.81L1438.245,1088.115z"/>
		<path fill="#54545E" d="M1502.401,1053.158h16.087c9.07,0,15.705,1.936,19.912,5.81c4.204,3.874,6.306,9.187,6.306,15.94
			c0,7.813-2.284,13.803-6.854,17.974c-4.568,4.171-11.353,6.256-20.357,6.256h-3.872v27.012h-11.222V1053.158z M1517.793,1089.307
			c5.824,0,9.897-1.292,12.215-3.874s3.477-5.693,3.477-9.334c0-3.907-1.127-7.085-3.377-9.535
			c-2.252-2.448-6.024-3.675-11.322-3.675h-5.163v26.417H1517.793z"/>
		<path fill="#54545E" d="M1574.797,1053.158h31.977v9.732h-20.953v20.16h16.883v9.931h-16.883v23.338h24.229v9.832h-35.253
			V1053.158z"/>
		<path fill="#54545E" d="M1677.578,1126.15l-14.696-27.608c-3.045,0.133-5.761,0.199-8.145,0.199h-2.779v27.409h-10.824v-72.992
			h16.582c8.408,0,15.328,1.739,20.757,5.214c5.427,3.476,8.142,9.121,8.142,16.931c0,4.901-1.141,9.121-3.427,12.663
			c-2.284,3.542-5.677,6.273-10.178,8.192l17.38,29.992H1677.578z M1659.01,1089.703c6.485,0,10.937-1.405,13.355-4.22
			c2.416-2.813,3.625-6.173,3.625-10.08c0-8.673-5.793-13.01-17.378-13.01h-6.654v27.31H1659.01z"/>
		<path fill="#54545E" d="M1731.505,1062.89h-18.671v-9.732h48.561v9.732h-18.869v63.26h-11.021V1062.89z"/>
	</g>
	<g>
		<g>
			<rect x="1065.888" y="415.725" fill="#3FA9F5" width="37.764" height="40.461"/>
		</g>
		<g>
			<rect x="1125.231" y="415.725" fill="#3FA9F5" width="35.066" height="40.461"/>
		</g>
		<g>
			<rect x="1065.888" y="350.987" fill="#3FA9F5" width="37.764" height="43.159"/>
		</g>
		<g>
			<rect x="1125.231" y="350.987" fill="#3FA9F5" width="35.066" height="43.159"/>
		</g>
	</g>
	<g>
		<g>
			<rect x="669.367" y="588.36" fill="#54545E" width="37.764" height="40.461"/>
		</g>
		<g>
			<rect x="726.013" y="588.36" fill="#54545E" width="40.461" height="40.461"/>
		</g>
		<g>
			<rect x="669.367" y="523.622" fill="#54545E" width="37.764" height="43.159"/>
		</g>
		<g>
			<rect x="726.013" y="523.622" fill="#54545E" width="40.461" height="43.159"/>
		</g>
		<g>
			<g>
				<polygon fill="#3FA9F5" points="873.212,401.577 1122.092,256.343 1362.816,400.049 1434.25,359.334 1122.506,173.231 
					803.014,359.67 				"/>
			</g>
		</g>
		<g>
			<polygon fill="#54545E" points="1544.103,321.496 1463.5,322.706 1487.101,362.167 1110.704,576.697 727.405,347.877 
				66.441,734.01 67.772,736.718 204.547,736.718 726.991,431.417 1109.871,659.772 1523.847,423.714 1546.31,461.219 
				1585.507,390.752 1624.705,320.299 			"/>
		</g>
	</g>
</g>
</svg>
