<?xml version="1.0" encoding="utf-8"?>
<!-- Generator: Adobe Illustrator 17.0.0, SVG Export Plug-In . SVG Version: 6.00 Build 0)  -->
<!DOCTYPE svg PUBLIC "-//W3C//DTD SVG 1.1//EN" "http://www.w3.org/Graphics/SVG/1.1/DTD/svg11.dtd">
<svg version="1.1" id="Layer_1" xmlns="http://www.w3.org/2000/svg" xmlns:xlink="http://www.w3.org/1999/xlink" x="0px" y="0px"
	 width="2000px" height="1300px" viewBox="0 0 2000 1300" enable-background="new 0 0 2000 1300" xml:space="preserve">
<g>
	<g>
		<path fill="#1C75BC" d="M531.782,606.606l-12.15,21.838l-16.452,29.577l-9.428-15.742l-173.756,99.079l-160.704-95.846
			L49.826,709.481c21.059,114.742,121.569,201.694,242.397,201.694c136.119,0,246.466-110.346,246.466-246.466
			C538.689,644.692,536.285,625.24,531.782,606.606z M151.131,727.218h-16.074v-16.074h16.074V727.218z M151.131,702.215h-16.074
			v-17.86h16.074V702.215z M176.134,727.218h-17.86v-16.074h17.86V727.218z M176.134,702.215h-17.86v-17.86h17.86V702.215z"/>
	</g>
	<g>
		<path fill="#3FA9F5" d="M320.346,706.489l157.982-90.043l-9.906-16.562l33.831-0.508l27.554-0.409
			c-28.771-104.199-124.234-180.723-237.584-180.723c-136.119,0-246.466,110.346-246.466,246.466c0,4.022,0.104,8.02,0.295,11.996
			l113.415-66.256L320.346,706.489z M319.013,655.779h-16.074v-17.86h16.074V655.779z M319.013,628.989h-16.074v-16.074h16.074
			V628.989z M340.445,655.779h-14.288v-17.86h14.288V655.779z M340.445,628.989h-14.288v-16.074h14.288V628.989z M325.3,537.145
			l130.846,78.112l-29.982,17.089l-101.037-60.316l-104.461,60.958l-29.464-17.589L325.3,537.145z"/>
	</g>
</g>
<g>
	<g>
		<g>
			<path fill="#1C75BC" d="M687.64,618.684c5.107-7.917,7.696-17.422,7.696-28.248c0-17.585-6.265-31.248-18.623-39.161
				C664.747,543.616,649.648,539,631.832,539H593v161h27v-56h5.705c1.347,0,2.747-0.852,4.198-0.836
				c3.336,0.036,7.065-0.021,10.143-0.101L670.227,700h35.857l-37.058-64.417C676.954,631.475,683.204,625.564,687.64,618.684z
				 M665.339,592.163c0,6.957-2.057,12.185-6.472,17.327c-3.998,4.655-11.974,6.51-24.38,6.51H620v-45h13.67
				C661.739,571,665.339,581.838,665.339,592.163z"/>
		</g>
		<g>
			<polygon fill="#1C75BC" points="805.591,539 771.728,594.484 737.864,539 700.765,539 757,626.144 757,700 790,700 790,626.536 
				842.413,539 			"/>
		</g>
		<g>
			<path fill="#1C75BC" d="M880.465,539L804.69,700h34.687l12.866-32h63.42l12.867,32h35.519l-76.206-161H880.465z M903.111,641
				h-38.094l13.784-31.149l5.401-12.537l5.324,12.864L903.111,641z"/>
		</g>
		<g>
			<polygon fill="#1C75BC" points="1062,539 1062,625.973 1061.877,630.851 980.028,539 972,539 972,700 1000,700 1000,614.006 
				1000.861,608.83 1081.9,698.296 1083.619,700 1092,700 1092,539 			"/>
		</g>
	</g>
	<g>
		<g>
			<path fill="#3FA9F5" d="M1262.975,613.644c3.567-2.913,6.404-6.484,8.478-10.681c3.261-6.599,4.915-13.701,4.915-21.104
				c0-11.379-3.965-21.927-11.787-29.906c-7.961-8.108-23.369-12.953-45.795-12.953H1179v161h44.484
				c16.644,0,29.771-2.744,39.015-7.44c9.405-4.774,15.753-11.162,18.867-18.634c2.919-7.007,4.398-15.329,4.398-24.553
				c0-9.17-2.573-17.322-7.649-24.141C1274.47,620.338,1269.396,616.43,1262.975,613.644z M1240.016,597.275
				c-2.974,3.422-8.552,3.725-17.553,3.725H1209v-30h12.442c21.01,0,23.705,6.372,23.705,13.369
				C1245.146,590.364,1243.563,593.197,1240.016,597.275z M1226.548,671H1209v-42h19.387c8.482,0,15.298,2.403,19.706,5.95
				c3.925,3.165,5.834,7.856,5.834,13.803c0,6.655-1.78,12.197-5.444,16.44C1245.256,668.935,1238.08,671,1226.548,671z"/>
		</g>
		<g>
			<path fill="#3FA9F5" d="M1422.206,548.261c-12.061-6.561-25.393-9.89-39.627-9.89c-14.236,0-27.568,3.328-39.627,9.89
				c-12.113,6.591-21.881,16.139-29.039,28.377c-7.144,12.216-10.767,26.685-10.767,43.005c0,16.179,3.621,30.61,10.761,42.892
				c7.154,12.306,16.921,21.921,29.029,28.582c12.059,6.637,25.397,10.001,39.643,10.001c14.244,0,27.582-3.364,39.643-10.001
				c12.109-6.663,21.873-16.278,29.029-28.582c7.14-12.286,10.761-26.715,10.761-42.892c0-16.316-3.623-30.785-10.767-43.005
				C1444.088,564.402,1434.317,554.854,1422.206,548.261z M1382.58,672.347c-8.371,0-16.252-2.056-23.424-6.11
				c-7.12-4.022-12.878-10.013-17.113-17.805c-4.279-7.862-6.448-17.479-6.448-28.586c0-11.254,2.11-20.957,6.269-28.834
				c4.1-7.764,9.743-13.701,16.773-17.65c7.108-3.991,15.165-6.015,23.943-6.015c8.772,0,16.789,2.02,23.828,6.007
				c6.975,3.951,12.626,9.9,16.799,17.68c4.219,7.874,6.359,17.567,6.359,28.813c0,11.115-2.139,20.74-6.359,28.608
				c-4.175,7.79-9.866,13.775-16.912,17.791C1399.196,670.293,1391.217,672.347,1382.58,672.347z"/>
		</g>
		<g>
			<polygon fill="#3FA9F5" points="1517,539 1484,539 1484,700 1557,700 1557,671 1517,671 			"/>
		</g>
		<g>
			<polygon fill="#3FA9F5" points="1554,571 1592,571 1592,700 1622,700 1622,571 1662,571 1662,539 1554,539 			"/>
		</g>
		<g>
			<path fill="#3FA9F5" d="M1785.326,548.261c-12.061-6.561-25.393-9.89-39.627-9.89c-14.236,0-27.568,3.328-39.627,9.89
				c-12.113,6.591-21.881,16.139-29.039,28.377c-7.144,12.216-10.767,26.685-10.767,43.005c0,16.179,3.621,30.61,10.761,42.892
				c7.154,12.306,16.92,21.921,29.029,28.582c12.059,6.637,25.397,10.001,39.643,10.001c14.244,0,27.582-3.364,39.643-10.001
				c12.109-6.663,21.873-16.278,29.029-28.582c7.14-12.286,10.761-26.715,10.761-42.892c0-16.316-3.623-30.785-10.767-43.005
				C1807.207,564.402,1797.437,554.854,1785.326,548.261z M1745.699,672.347c-8.371,0-16.252-2.056-23.424-6.11
				c-7.12-4.022-12.878-10.013-17.113-17.805c-4.279-7.862-6.448-17.479-6.448-28.586c0-11.254,2.109-20.957,6.269-28.834
				c4.1-7.764,9.743-13.701,16.773-17.65c7.108-3.991,15.165-6.015,23.943-6.015c8.772,0,16.789,2.02,23.828,6.007
				c6.975,3.951,12.626,9.9,16.799,17.68c4.219,7.874,6.359,17.567,6.359,28.813c0,11.115-2.139,20.74-6.359,28.608
				c-4.175,7.79-9.866,13.775-16.912,17.791C1762.315,670.293,1754.336,672.347,1745.699,672.347z"/>
		</g>
		<g>
			<polygon fill="#3FA9F5" points="1938,539 1938,626.083 1938.465,631.37 1856.368,539 1847,539 1847,700 1880,700 1880,614.127 
				1879.474,609.737 1959.956,700 1970,700 1970,539 			"/>
		</g>
	</g>
</g>
<g>
	<path fill="#1C75BC" d="M684.913,737.603h7.981v44.843h14.902v7.063h-22.883V737.603z"/>
	<path fill="#1C75BC" d="M740.387,786.931c-3.98-2.19-7.144-5.306-9.5-9.358c-2.355-4.046-3.532-8.757-3.532-14.123
		c0-5.415,1.176-10.135,3.532-14.159c2.355-4.025,5.52-7.12,9.5-9.286c3.977-2.166,8.321-3.249,13.028-3.249
		c4.708,0,9.052,1.083,13.031,3.249c3.977,2.166,7.144,5.261,9.497,9.286c2.355,4.025,3.532,8.745,3.532,14.159
		c0,5.367-1.176,10.077-3.532,14.123c-2.352,4.052-5.52,7.168-9.497,9.358c-3.98,2.19-8.324,3.285-13.031,3.285
		C748.707,790.216,744.364,789.121,740.387,786.931z M762.313,780.789c2.686-1.531,4.816-3.766,6.392-6.711
		c1.576-2.942,2.367-6.462,2.367-10.556c0-4.145-0.791-7.686-2.367-10.631c-1.576-2.942-3.697-5.165-6.356-6.672
		s-5.637-2.262-8.934-2.262c-3.294,0-6.284,0.755-8.967,2.262s-4.804,3.73-6.356,6.672c-1.555,2.945-2.331,6.486-2.331,10.631
		c0,4.094,0.8,7.614,2.401,10.556c1.6,2.945,3.754,5.18,6.462,6.711c2.707,1.528,5.64,2.295,8.793,2.295
		C756.664,783.084,759.63,782.317,762.313,780.789z"/>
	<path fill="#1C75BC" d="M812.069,786.402c-3.932-2.401-6.934-5.613-9.006-9.641c-2.07-4.025-3.104-8.462-3.104-13.311
		c0-5.132,1.116-9.722,3.354-13.771c2.235-4.049,5.379-7.214,9.428-9.5c4.049-2.283,8.64-3.423,13.771-3.423
		c2.304,0,4.458,0.247,6.462,0.74c2,0.496,3.661,1.059,4.979,1.697c1.318,0.635,2.19,1.164,2.614,1.588l-3.462,7.063
		c-2.873-2.542-6.615-3.814-11.229-3.814c-3.246,0-6.191,0.8-8.826,2.401c-2.638,1.6-4.708,3.884-6.215,6.85
		s-2.259,6.404-2.259,10.312c0,3.58,0.671,6.829,2.013,9.746c1.342,2.918,3.306,5.225,5.896,6.922
		c2.59,1.694,5.673,2.542,9.253,2.542c4.142,0,8.143-1.176,12.006-3.532l2.328,6.708c-1.035,0.942-2.93,1.85-5.685,2.719
		c-2.753,0.869-5.541,1.306-8.369,1.306C820.648,790.003,815.997,788.802,812.069,786.402z"/>
	<path fill="#1C75BC" d="M881.38,737.531l25.001,51.978h-9.109l-4.449-10.171h-23.801l-4.449,10.171h-8.829l24.86-51.978H881.38z
		 M877.852,759.635l-5.652,12.571h17.517l-5.58-12.499l-3.035-7.132h-0.141L877.852,759.635z"/>
	<path fill="#1C75BC" d="M924.884,737.603h7.981v44.843h14.902v7.063h-22.883V737.603z"/>
	<path fill="#1C75BC" d="M1014.29,765.284l-3.249-7.343l-1.483,7.343l-4.801,24.225h-7.839l10.733-51.906h0.848l14.268,28.036
		l4.236,9.392l4.239-9.392l13.982-28.036H1046l11.16,51.906h-7.77l-5.225-24.225l-1.555-7.343l-2.825,7.343l-12.568,24.225h-0.424
		L1014.29,765.284z"/>
	<path fill="#1C75BC" d="M1089.116,786.931c-3.98-2.19-7.144-5.306-9.5-9.358c-2.355-4.046-3.531-8.757-3.531-14.123
		c0-5.415,1.176-10.135,3.531-14.159c2.355-4.025,5.52-7.12,9.5-9.286c3.977-2.166,8.321-3.249,13.028-3.249
		c4.708,0,9.052,1.083,13.031,3.249c3.977,2.166,7.144,5.261,9.497,9.286c2.355,4.025,3.532,8.745,3.532,14.159
		c0,5.367-1.176,10.077-3.532,14.123c-2.352,4.052-5.52,7.168-9.497,9.358c-3.98,2.19-8.324,3.285-13.031,3.285
		C1097.436,790.216,1093.093,789.121,1089.116,786.931z M1111.042,780.789c2.686-1.531,4.816-3.766,6.392-6.711
		c1.576-2.942,2.367-6.462,2.367-10.556c0-4.145-0.791-7.686-2.367-10.631c-1.576-2.942-3.697-5.165-6.356-6.672
		c-2.659-1.507-5.637-2.262-8.934-2.262c-3.294,0-6.284,0.755-8.967,2.262s-4.804,3.73-6.356,6.672
		c-1.555,2.945-2.331,6.486-2.331,10.631c0,4.094,0.8,7.614,2.401,10.556c1.6,2.945,3.754,5.18,6.462,6.711
		c2.707,1.528,5.64,2.295,8.793,2.295C1105.393,783.084,1108.359,782.317,1111.042,780.789z"/>
	<path fill="#1C75BC" d="M1177.075,789.509l-10.45-19.634c-2.166,0.096-4.097,0.141-5.791,0.141h-1.979v19.493h-7.698v-51.906
		h11.795c5.977,0,10.899,1.233,14.758,3.706c3.863,2.473,5.794,6.486,5.794,12.042c0,3.483-0.812,6.486-2.437,9.003
		c-1.624,2.521-4.04,4.461-7.241,5.827l12.361,21.328H1177.075z M1163.869,763.591c4.615,0,7.779-0.999,9.5-3.002
		c1.718-2,2.578-4.389,2.578-7.168c0-6.167-4.121-9.25-12.361-9.25h-4.732v19.421H1163.869z"/>
	<path fill="#1C75BC" d="M1215.423,744.522h-13.278v-6.919h34.534v6.919h-13.417v44.987h-7.839V744.522z"/>
	<path fill="#1C75BC" d="M1266.06,786.685c-4.049-2.355-7.217-5.589-9.5-9.71c-2.283-4.118-3.423-8.745-3.423-13.877
		c0-4.991,1.152-9.488,3.459-13.489c2.307-4.001,5.508-7.135,9.605-9.395c4.094-2.259,8.709-3.39,13.841-3.39
		c2.777,0,5.285,0.247,7.521,0.743c2.238,0.493,4.061,1.059,5.475,1.694c1.411,0.638,2.376,1.191,2.894,1.661l-3.108,6.639
		c-2.918-2.355-7.226-3.532-12.923-3.532c-3.766,0-7.039,0.824-9.816,2.473c-2.78,1.648-4.897,3.884-6.356,6.708
		c-1.459,2.825-2.19,5.98-2.19,9.464c0,3.956,0.788,7.484,2.367,10.592c1.576,3.107,3.766,5.523,6.567,7.241
		c2.801,1.718,5.968,2.578,9.5,2.578c2.211,0,4.329-0.271,6.356-0.812c2.021-0.541,3.742-1.402,5.153-2.578v-10.029h-10.664v-7.274
		h18.503v20.338c-1.694,2.121-4.248,3.896-7.662,5.333c-3.414,1.435-7.358,2.154-11.828,2.154
		C1274.699,790.216,1270.109,789.04,1266.06,786.685z"/>
	<path fill="#1C75BC" d="M1341.27,737.531l25.001,51.978h-9.109l-4.449-10.171h-23.801l-4.449,10.171h-8.829l24.86-51.978H1341.27z
		 M1337.741,759.635l-5.652,12.571h17.517l-5.58-12.499l-3.035-7.132h-0.141L1337.741,759.635z"/>
	<path fill="#1C75BC" d="M1393.107,786.685c-4.049-2.355-7.217-5.589-9.5-9.71c-2.283-4.118-3.423-8.745-3.423-13.877
		c0-4.991,1.152-9.488,3.459-13.489c2.307-4.001,5.508-7.135,9.605-9.395c4.094-2.259,8.709-3.39,13.841-3.39
		c2.776,0,5.285,0.247,7.52,0.743c2.238,0.493,4.061,1.059,5.475,1.694c1.411,0.638,2.376,1.191,2.894,1.661l-3.107,6.639
		c-2.918-2.355-7.226-3.532-12.923-3.532c-3.766,0-7.039,0.824-9.816,2.473c-2.78,1.648-4.897,3.884-6.356,6.708
		c-1.459,2.825-2.19,5.98-2.19,9.464c0,3.956,0.788,7.484,2.367,10.592c1.576,3.107,3.766,5.523,6.567,7.241
		c2.801,1.718,5.968,2.578,9.5,2.578c2.211,0,4.329-0.271,6.356-0.812c2.021-0.541,3.742-1.402,5.153-2.578v-10.029h-10.664v-7.274
		h18.503v20.338c-1.694,2.121-4.248,3.896-7.662,5.333c-3.414,1.435-7.358,2.154-11.828,2.154
		C1401.746,790.216,1397.156,789.04,1393.107,786.685z"/>
	<path fill="#1C75BC" d="M1449.252,737.603h22.739v6.919h-14.899v14.337h12.006v7.063h-12.006v16.596h17.231v6.991h-25.07V737.603z"
		/>
	<path fill="#1C75BC" d="M1527.783,737.603h22.739v6.919h-14.9v14.337h12.006v7.063h-12.006v16.596h17.231v6.991h-25.07V737.603z"/>
	<path fill="#1C75BC" d="M1586.045,762.46l-14.972-24.857h9.533l9.819,18.148l10.099-18.148h9.322l-15.044,24.715l16.527,27.191
		h-9.395l-11.44-20.552l-11.229,20.552h-9.109L1586.045,762.46z"/>
	<path fill="#1C75BC" d="M1631.667,737.603h11.44c6.453,0,11.169,1.375,14.162,4.13c2.987,2.755,4.482,6.534,4.482,11.335
		c0,5.556-1.624,9.816-4.873,12.782c-3.249,2.966-8.074,4.449-14.475,4.449h-2.755v19.21h-7.981V737.603z M1642.614,763.308
		c4.142,0,7.039-0.917,8.688-2.753c1.646-1.838,2.47-4.049,2.47-6.639c0-2.78-0.8-5.039-2.401-6.78
		c-1.6-1.742-4.284-2.614-8.05-2.614h-3.673v18.786H1642.614z"/>
	<path fill="#1C75BC" d="M1683.152,737.603h22.739v6.919h-14.899v14.337h12.006v7.063h-12.006v16.596h17.231v6.991h-25.07V737.603z"
		/>
	<path fill="#1C75BC" d="M1756.245,789.509l-10.45-19.634c-2.166,0.096-4.097,0.141-5.791,0.141h-1.979v19.493h-7.698v-51.906
		h11.795c5.977,0,10.899,1.233,14.758,3.706c3.862,2.473,5.794,6.486,5.794,12.042c0,3.483-0.812,6.486-2.437,9.003
		c-1.624,2.521-4.04,4.461-7.241,5.827l12.361,21.328H1756.245z M1743.039,763.591c4.615,0,7.779-0.999,9.5-3.002
		c1.718-2,2.578-4.389,2.578-7.168c0-6.167-4.121-9.25-12.361-9.25h-4.732v19.421H1743.039z"/>
	<path fill="#1C75BC" d="M1794.593,744.522h-13.278v-6.919h34.534v6.919h-13.417v44.987h-7.839V744.522z"/>
</g>
</svg>
